G04*
G04 #@! TF.GenerationSoftware,Altium Limited,Altium Designer,19.0.6 (157)*
G04*
G04 Layer_Physical_Order=2*
G04 Layer_Color=16711680*
%FSLAX25Y25*%
%MOIN*%
G70*
G01*
G75*
%ADD49C,0.07874*%
%ADD50R,0.06200X0.06200*%
%ADD51C,0.06200*%
%ADD52C,0.11811*%
%ADD53C,0.31496*%
%ADD54R,0.23622X0.23622*%
%ADD55C,0.05500*%
%ADD56C,0.15748*%
%ADD57C,0.05000*%
%ADD58C,0.02165*%
G36*
X374569Y1809D02*
X373863D01*
X373660Y2324D01*
X373660Y2409D01*
Y30746D01*
X345238D01*
Y2409D01*
X345238Y2324D01*
X345034Y1809D01*
X1809D01*
Y271813D01*
X374569D01*
Y1809D01*
D02*
G37*
%LPC*%
G36*
X83465Y263040D02*
X82754Y263000D01*
X82052Y262881D01*
X81368Y262684D01*
X80711Y262411D01*
X80088Y262067D01*
X79507Y261655D01*
X78977Y261181D01*
X78502Y260650D01*
X78090Y260070D01*
X77746Y259447D01*
X77474Y258789D01*
X77277Y258105D01*
X77157Y257403D01*
X77118Y256693D01*
X77157Y255982D01*
X77277Y255281D01*
X77474Y254597D01*
X77746Y253939D01*
X78090Y253316D01*
X78502Y252736D01*
X78977Y252205D01*
X79507Y251731D01*
X80088Y251319D01*
X80711Y250974D01*
X81368Y250702D01*
X82052Y250505D01*
X82754Y250386D01*
X83465Y250346D01*
X84175Y250386D01*
X84877Y250505D01*
X85561Y250702D01*
X86218Y250974D01*
X86841Y251319D01*
X87422Y251731D01*
X87953Y252205D01*
X88427Y252736D01*
X88839Y253316D01*
X89183Y253939D01*
X89455Y254597D01*
X89652Y255281D01*
X89772Y255982D01*
X89812Y256693D01*
X89772Y257403D01*
X89652Y258105D01*
X89455Y258789D01*
X89183Y259447D01*
X88839Y260070D01*
X88427Y260650D01*
X87953Y261181D01*
X87422Y261655D01*
X86841Y262067D01*
X86218Y262411D01*
X85561Y262684D01*
X84877Y262881D01*
X84175Y263000D01*
X83465Y263040D01*
D02*
G37*
G36*
X63779D02*
X63069Y263000D01*
X62367Y262881D01*
X61683Y262684D01*
X61026Y262411D01*
X60403Y262067D01*
X59822Y261655D01*
X59291Y261181D01*
X58817Y260650D01*
X58405Y260070D01*
X58061Y259447D01*
X57789Y258789D01*
X57592Y258105D01*
X57472Y257403D01*
X57433Y256693D01*
X57472Y255982D01*
X57592Y255281D01*
X57789Y254597D01*
X58061Y253939D01*
X58405Y253316D01*
X58817Y252736D01*
X59291Y252205D01*
X59822Y251731D01*
X60403Y251319D01*
X61026Y250974D01*
X61683Y250702D01*
X62367Y250505D01*
X63069Y250386D01*
X63779Y250346D01*
X64490Y250386D01*
X65192Y250505D01*
X65876Y250702D01*
X66533Y250974D01*
X67156Y251319D01*
X67737Y251731D01*
X68268Y252205D01*
X68742Y252736D01*
X69154Y253316D01*
X69498Y253939D01*
X69770Y254597D01*
X69967Y255281D01*
X70087Y255982D01*
X70126Y256693D01*
X70087Y257403D01*
X69967Y258105D01*
X69770Y258789D01*
X69498Y259447D01*
X69154Y260070D01*
X68742Y260650D01*
X68268Y261181D01*
X67737Y261655D01*
X67156Y262067D01*
X66533Y262411D01*
X65876Y262684D01*
X65192Y262881D01*
X64490Y263000D01*
X63779Y263040D01*
D02*
G37*
G36*
X44094D02*
X43384Y263000D01*
X42682Y262881D01*
X41998Y262684D01*
X41341Y262411D01*
X40718Y262067D01*
X40137Y261655D01*
X39606Y261181D01*
X39132Y260650D01*
X38720Y260070D01*
X38376Y259447D01*
X38104Y258789D01*
X37907Y258105D01*
X37787Y257403D01*
X37747Y256693D01*
X37787Y255982D01*
X37907Y255281D01*
X38104Y254597D01*
X38376Y253939D01*
X38720Y253316D01*
X39132Y252736D01*
X39606Y252205D01*
X40137Y251731D01*
X40718Y251319D01*
X41341Y250974D01*
X41998Y250702D01*
X42682Y250505D01*
X43384Y250386D01*
X44094Y250346D01*
X44805Y250386D01*
X45507Y250505D01*
X46191Y250702D01*
X46848Y250974D01*
X47471Y251319D01*
X48052Y251731D01*
X48583Y252205D01*
X49057Y252736D01*
X49469Y253316D01*
X49813Y253939D01*
X50085Y254597D01*
X50282Y255281D01*
X50402Y255982D01*
X50441Y256693D01*
X50402Y257403D01*
X50282Y258105D01*
X50085Y258789D01*
X49813Y259447D01*
X49469Y260070D01*
X49057Y260650D01*
X48583Y261181D01*
X48052Y261655D01*
X47471Y262067D01*
X46848Y262411D01*
X46191Y262684D01*
X45507Y262881D01*
X44805Y263000D01*
X44094Y263040D01*
D02*
G37*
G36*
X143701Y266581D02*
X142976Y266549D01*
X142257Y266455D01*
X141549Y266298D01*
X140857Y266080D01*
X140187Y265802D01*
X139544Y265467D01*
X138932Y265078D01*
X138357Y264636D01*
X137822Y264146D01*
X137332Y263612D01*
X136891Y263036D01*
X136501Y262424D01*
X136166Y261781D01*
X135889Y261111D01*
X135671Y260419D01*
X135514Y259711D01*
X135419Y258992D01*
X135387Y258268D01*
X135419Y257543D01*
X135514Y256824D01*
X135671Y256116D01*
X135889Y255424D01*
X136166Y254754D01*
X136501Y254111D01*
X136891Y253499D01*
X137332Y252924D01*
X137822Y252389D01*
X138357Y251899D01*
X138932Y251458D01*
X139544Y251068D01*
X140187Y250733D01*
X140857Y250456D01*
X141549Y250238D01*
X142257Y250081D01*
X142976Y249986D01*
X143701Y249954D01*
X144425Y249986D01*
X145144Y250081D01*
X145852Y250238D01*
X146544Y250456D01*
X147214Y250733D01*
X147857Y251068D01*
X148469Y251458D01*
X149045Y251899D01*
X149579Y252389D01*
X150069Y252924D01*
X150511Y253499D01*
X150900Y254111D01*
X151235Y254754D01*
X151513Y255424D01*
X151731Y256116D01*
X151888Y256824D01*
X151983Y257543D01*
X152014Y258268D01*
X151983Y258992D01*
X151888Y259711D01*
X151731Y260419D01*
X151513Y261111D01*
X151235Y261781D01*
X150900Y262424D01*
X150511Y263036D01*
X150069Y263612D01*
X149579Y264146D01*
X149045Y264636D01*
X148469Y265078D01*
X147857Y265467D01*
X147214Y265802D01*
X146544Y266080D01*
X145852Y266298D01*
X145144Y266455D01*
X144425Y266549D01*
X143701Y266581D01*
D02*
G37*
G36*
X125197D02*
X124472Y266549D01*
X123753Y266455D01*
X123045Y266298D01*
X122353Y266080D01*
X121683Y265802D01*
X121040Y265467D01*
X120429Y265078D01*
X119853Y264636D01*
X119318Y264146D01*
X118828Y263612D01*
X118387Y263036D01*
X117997Y262424D01*
X117662Y261781D01*
X117385Y261111D01*
X117167Y260419D01*
X117010Y259711D01*
X116915Y258992D01*
X116883Y258268D01*
X116915Y257543D01*
X117010Y256824D01*
X117167Y256116D01*
X117385Y255424D01*
X117662Y254754D01*
X117997Y254111D01*
X118387Y253499D01*
X118828Y252924D01*
X119318Y252389D01*
X119853Y251899D01*
X120429Y251458D01*
X121040Y251068D01*
X121683Y250733D01*
X122353Y250456D01*
X123045Y250238D01*
X123753Y250081D01*
X124472Y249986D01*
X125197Y249954D01*
X125921Y249986D01*
X126640Y250081D01*
X127348Y250238D01*
X128040Y250456D01*
X128710Y250733D01*
X129354Y251068D01*
X129965Y251458D01*
X130541Y251899D01*
X131075Y252389D01*
X131565Y252924D01*
X132007Y253499D01*
X132396Y254111D01*
X132731Y254754D01*
X133009Y255424D01*
X133227Y256116D01*
X133384Y256824D01*
X133479Y257543D01*
X133510Y258268D01*
X133479Y258992D01*
X133384Y259711D01*
X133227Y260419D01*
X133009Y261111D01*
X132731Y261781D01*
X132396Y262424D01*
X132007Y263036D01*
X131565Y263612D01*
X131075Y264146D01*
X130541Y264636D01*
X129965Y265078D01*
X129354Y265467D01*
X128710Y265802D01*
X128040Y266080D01*
X127348Y266298D01*
X126640Y266455D01*
X125921Y266549D01*
X125197Y266581D01*
D02*
G37*
G36*
X106693D02*
X105968Y266549D01*
X105249Y266455D01*
X104541Y266298D01*
X103850Y266080D01*
X103180Y265802D01*
X102536Y265467D01*
X101925Y265078D01*
X101349Y264636D01*
X100814Y264146D01*
X100324Y263612D01*
X99883Y263036D01*
X99493Y262424D01*
X99158Y261781D01*
X98881Y261111D01*
X98663Y260419D01*
X98506Y259711D01*
X98411Y258992D01*
X98379Y258268D01*
X98411Y257543D01*
X98506Y256824D01*
X98663Y256116D01*
X98881Y255424D01*
X99158Y254754D01*
X99493Y254111D01*
X99883Y253499D01*
X100324Y252924D01*
X100814Y252389D01*
X101349Y251899D01*
X101925Y251458D01*
X102536Y251068D01*
X103180Y250733D01*
X103850Y250456D01*
X104541Y250238D01*
X105249Y250081D01*
X105968Y249986D01*
X106693Y249954D01*
X107418Y249986D01*
X108136Y250081D01*
X108845Y250238D01*
X109536Y250456D01*
X110206Y250733D01*
X110850Y251068D01*
X111461Y251458D01*
X112037Y251899D01*
X112571Y252389D01*
X113061Y252924D01*
X113503Y253499D01*
X113893Y254111D01*
X114227Y254754D01*
X114505Y255424D01*
X114723Y256116D01*
X114880Y256824D01*
X114975Y257543D01*
X115006Y258268D01*
X114975Y258992D01*
X114880Y259711D01*
X114723Y260419D01*
X114505Y261111D01*
X114227Y261781D01*
X113893Y262424D01*
X113503Y263036D01*
X113061Y263612D01*
X112571Y264146D01*
X112037Y264636D01*
X111461Y265078D01*
X110850Y265467D01*
X110206Y265802D01*
X109536Y266080D01*
X108845Y266298D01*
X108136Y266455D01*
X107418Y266549D01*
X106693Y266581D01*
D02*
G37*
G36*
X33896Y270116D02*
X5474D01*
Y241694D01*
X33896D01*
Y270116D01*
D02*
G37*
G36*
X324095Y232402D02*
X323517Y232370D01*
X322947Y232273D01*
X322391Y232113D01*
X321856Y231891D01*
X321350Y231612D01*
X320879Y231277D01*
X320447Y230891D01*
X320062Y230460D01*
X319727Y229988D01*
X319447Y229482D01*
X319226Y228948D01*
X319066Y228392D01*
X318969Y227822D01*
X318936Y227244D01*
X318969Y226667D01*
X319066Y226096D01*
X319226Y225540D01*
X319447Y225006D01*
X319727Y224500D01*
X320062Y224028D01*
X320447Y223597D01*
X320879Y223211D01*
X321350Y222877D01*
X321856Y222597D01*
X322391Y222375D01*
X322947Y222215D01*
X323517Y222118D01*
X324095Y222086D01*
X324672Y222118D01*
X325242Y222215D01*
X325798Y222375D01*
X326332Y222597D01*
X326839Y222877D01*
X327310Y223211D01*
X327742Y223597D01*
X328127Y224028D01*
X328462Y224500D01*
X328742Y225006D01*
X328963Y225540D01*
X329123Y226096D01*
X329220Y226667D01*
X329253Y227244D01*
X329220Y227822D01*
X329123Y228392D01*
X328963Y228948D01*
X328742Y229482D01*
X328462Y229988D01*
X328127Y230460D01*
X327742Y230891D01*
X327310Y231277D01*
X326839Y231612D01*
X326332Y231891D01*
X325798Y232113D01*
X325242Y232273D01*
X324672Y232370D01*
X324095Y232402D01*
D02*
G37*
G36*
X121378Y214020D02*
X110378D01*
Y203020D01*
X121378D01*
Y214020D01*
D02*
G37*
G36*
X46378D02*
X35378D01*
Y203020D01*
X46378D01*
Y214020D01*
D02*
G37*
G36*
X184252Y203984D02*
X183064Y203946D01*
X181882Y203829D01*
X180710Y203636D01*
X179552Y203366D01*
X178415Y203021D01*
X177303Y202602D01*
X176221Y202112D01*
X175173Y201552D01*
X174164Y200924D01*
X173198Y200232D01*
X172280Y199478D01*
X171413Y198666D01*
X170600Y197799D01*
X169846Y196880D01*
X169154Y195915D01*
X168527Y194906D01*
X167967Y193858D01*
X167476Y192775D01*
X167058Y191663D01*
X166713Y190526D01*
X166443Y189369D01*
X166250Y188197D01*
X166133Y187014D01*
X166094Y185827D01*
X166133Y184639D01*
X166250Y183457D01*
X166443Y182284D01*
X166713Y181127D01*
X167058Y179990D01*
X167476Y178878D01*
X167967Y177796D01*
X168527Y176748D01*
X169154Y175739D01*
X169846Y174773D01*
X170600Y173854D01*
X171413Y172987D01*
X172280Y172175D01*
X173198Y171421D01*
X174164Y170729D01*
X175173Y170102D01*
X176221Y169542D01*
X177303Y169051D01*
X178415Y168633D01*
X179552Y168288D01*
X180710Y168018D01*
X181882Y167824D01*
X183064Y167708D01*
X184252Y167669D01*
X185440Y167708D01*
X186622Y167824D01*
X187794Y168018D01*
X188952Y168288D01*
X190089Y168633D01*
X191201Y169051D01*
X192283Y169542D01*
X193331Y170102D01*
X194340Y170729D01*
X195306Y171421D01*
X196224Y172175D01*
X197091Y172987D01*
X197904Y173854D01*
X198658Y174773D01*
X199350Y175739D01*
X199977Y176748D01*
X200537Y177796D01*
X201027Y178878D01*
X201446Y179990D01*
X201791Y181127D01*
X202061Y182284D01*
X202254Y183457D01*
X202371Y184639D01*
X202410Y185827D01*
X202371Y187014D01*
X202254Y188197D01*
X202061Y189369D01*
X201791Y190526D01*
X201446Y191663D01*
X201027Y192775D01*
X200537Y193858D01*
X199977Y194906D01*
X199350Y195915D01*
X198658Y196880D01*
X197904Y197799D01*
X197091Y198666D01*
X196224Y199478D01*
X195306Y200232D01*
X194340Y200924D01*
X193331Y201552D01*
X192283Y202112D01*
X191201Y202602D01*
X190089Y203021D01*
X188952Y203366D01*
X187794Y203636D01*
X186622Y203829D01*
X185440Y203946D01*
X184252Y203984D01*
D02*
G37*
G36*
X344094Y161858D02*
X342907Y161820D01*
X341724Y161703D01*
X340552Y161510D01*
X339395Y161240D01*
X338258Y160895D01*
X337146Y160476D01*
X336064Y159986D01*
X335016Y159426D01*
X334007Y158798D01*
X333041Y158106D01*
X332122Y157352D01*
X331255Y156540D01*
X330443Y155673D01*
X329689Y154754D01*
X328997Y153789D01*
X328369Y152780D01*
X327809Y151732D01*
X327319Y150649D01*
X326900Y149537D01*
X326555Y148400D01*
X326286Y147243D01*
X326092Y146071D01*
X325976Y144888D01*
X325937Y143701D01*
X325976Y142513D01*
X326092Y141331D01*
X326286Y140158D01*
X326555Y139001D01*
X326900Y137864D01*
X327319Y136752D01*
X327809Y135670D01*
X328369Y134622D01*
X328997Y133613D01*
X329689Y132647D01*
X330443Y131728D01*
X331255Y130861D01*
X332122Y130049D01*
X333041Y129295D01*
X334007Y128603D01*
X335016Y127976D01*
X336064Y127416D01*
X337146Y126925D01*
X338258Y126507D01*
X339395Y126162D01*
X340552Y125892D01*
X341724Y125698D01*
X342907Y125582D01*
X344094Y125543D01*
X345282Y125582D01*
X346465Y125698D01*
X347637Y125892D01*
X348794Y126162D01*
X349931Y126507D01*
X351043Y126925D01*
X352126Y127416D01*
X353173Y127976D01*
X354182Y128603D01*
X355148Y129295D01*
X356067Y130049D01*
X356934Y130861D01*
X357746Y131728D01*
X358500Y132647D01*
X359192Y133613D01*
X359820Y134622D01*
X360380Y135670D01*
X360870Y136752D01*
X361289Y137864D01*
X361633Y139001D01*
X361903Y140158D01*
X362097Y141331D01*
X362213Y142513D01*
X362252Y143701D01*
X362213Y144888D01*
X362097Y146071D01*
X361903Y147243D01*
X361633Y148400D01*
X361289Y149537D01*
X360870Y150649D01*
X360380Y151732D01*
X359820Y152780D01*
X359192Y153789D01*
X358500Y154754D01*
X357746Y155673D01*
X356934Y156540D01*
X356067Y157352D01*
X355148Y158106D01*
X354182Y158798D01*
X353173Y159426D01*
X352126Y159986D01*
X351043Y160476D01*
X349931Y160895D01*
X348794Y161240D01*
X347637Y161510D01*
X346465Y161703D01*
X345282Y161820D01*
X344094Y161858D01*
D02*
G37*
G36*
X121378Y107492D02*
X110378D01*
Y96492D01*
X121378D01*
Y107492D01*
D02*
G37*
G36*
X196378Y107465D02*
X185378D01*
Y96465D01*
X196378D01*
Y107465D01*
D02*
G37*
G36*
X46378D02*
X35378D01*
Y96465D01*
X46378D01*
Y107465D01*
D02*
G37*
G36*
X272378Y106992D02*
X261378D01*
Y95992D01*
X272378D01*
Y106992D01*
D02*
G37*
G36*
X344094Y91780D02*
X342907Y91741D01*
X341724Y91624D01*
X340552Y91431D01*
X339395Y91161D01*
X338258Y90816D01*
X337146Y90398D01*
X336064Y89907D01*
X335016Y89347D01*
X334007Y88720D01*
X333041Y88028D01*
X332122Y87274D01*
X331255Y86462D01*
X330443Y85594D01*
X329689Y84676D01*
X328997Y83710D01*
X328369Y82701D01*
X327809Y81653D01*
X327319Y80571D01*
X326900Y79459D01*
X326555Y78322D01*
X326286Y77164D01*
X326092Y75992D01*
X325976Y74810D01*
X325937Y73622D01*
X325976Y72435D01*
X326092Y71252D01*
X326286Y70080D01*
X326555Y68923D01*
X326900Y67785D01*
X327319Y66673D01*
X327809Y65591D01*
X328369Y64543D01*
X328997Y63534D01*
X329689Y62568D01*
X330443Y61650D01*
X331255Y60783D01*
X332122Y59970D01*
X333041Y59216D01*
X334007Y58524D01*
X335016Y57897D01*
X336064Y57337D01*
X337146Y56846D01*
X338258Y56428D01*
X339395Y56083D01*
X340552Y55813D01*
X341724Y55620D01*
X342907Y55503D01*
X344094Y55464D01*
X345282Y55503D01*
X346465Y55620D01*
X347637Y55813D01*
X348794Y56083D01*
X349931Y56428D01*
X351043Y56846D01*
X352126Y57337D01*
X353173Y57897D01*
X354182Y58524D01*
X355148Y59216D01*
X356067Y59970D01*
X356934Y60783D01*
X357746Y61650D01*
X358500Y62568D01*
X359192Y63534D01*
X359820Y64543D01*
X360380Y65591D01*
X360870Y66673D01*
X361289Y67785D01*
X361633Y68923D01*
X361903Y70080D01*
X362097Y71252D01*
X362213Y72435D01*
X362252Y73622D01*
X362213Y74810D01*
X362097Y75992D01*
X361903Y77164D01*
X361633Y78322D01*
X361289Y79459D01*
X360870Y80571D01*
X360380Y81653D01*
X359820Y82701D01*
X359192Y83710D01*
X358500Y84676D01*
X357746Y85594D01*
X356934Y86462D01*
X356067Y87274D01*
X355148Y88028D01*
X354182Y88720D01*
X353173Y89347D01*
X352126Y89907D01*
X351043Y90398D01*
X349931Y90816D01*
X348794Y91161D01*
X347637Y91431D01*
X346465Y91624D01*
X345282Y91741D01*
X344094Y91780D01*
D02*
G37*
G36*
X121378Y61020D02*
X110378D01*
Y50020D01*
X121378D01*
Y61020D01*
D02*
G37*
G36*
X272378Y60992D02*
X261378D01*
Y49992D01*
X272378D01*
Y60992D01*
D02*
G37*
G36*
X196378D02*
X185378D01*
Y49992D01*
X196378D01*
Y60992D01*
D02*
G37*
G36*
X46378D02*
X35378D01*
Y49992D01*
X46378D01*
Y60992D01*
D02*
G37*
%LPD*%
D49*
X83465Y256693D02*
D03*
X63779D02*
D03*
X44094D02*
D03*
D50*
X115878Y208520D02*
D03*
X266878Y101492D02*
D03*
X190878Y101965D02*
D03*
X115878Y101992D02*
D03*
X40878Y101965D02*
D03*
Y208520D02*
D03*
Y55492D02*
D03*
X115878Y55520D02*
D03*
X190878Y55492D02*
D03*
X266878D02*
D03*
D51*
X115878Y178992D02*
D03*
X266878Y131020D02*
D03*
X190878Y131492D02*
D03*
X115878Y131520D02*
D03*
X40878Y131492D02*
D03*
Y178992D02*
D03*
Y25965D02*
D03*
X115878Y25992D02*
D03*
X190878Y25965D02*
D03*
X266878D02*
D03*
D52*
X106693Y258268D02*
D03*
X125197D02*
D03*
X143701D02*
D03*
D53*
X184252Y243701D02*
D03*
Y185827D02*
D03*
X344094Y73622D02*
D03*
Y143701D02*
D03*
D54*
X359449Y16535D02*
D03*
X19685Y255906D02*
D03*
D55*
X324095Y227244D02*
D03*
Y237244D02*
D03*
D56*
X344094Y247244D02*
D03*
Y207244D02*
D03*
D57*
X221927Y194488D02*
D03*
X224961Y189092D02*
D03*
X221642Y203928D02*
D03*
X227964Y207863D02*
D03*
D58*
X370866Y259055D02*
D03*
Y248031D02*
D03*
Y237008D02*
D03*
Y225984D02*
D03*
Y214961D02*
D03*
Y203937D02*
D03*
X368110Y264567D02*
D03*
X365354Y259055D02*
D03*
X368110Y253543D02*
D03*
X365354Y248031D02*
D03*
X368110Y242520D02*
D03*
X365354Y237008D02*
D03*
X368110Y231496D02*
D03*
X365354Y225984D02*
D03*
X368110Y220472D02*
D03*
X365354Y214961D02*
D03*
X368110Y209449D02*
D03*
X365354Y203937D02*
D03*
X368110Y198425D02*
D03*
X362598Y264567D02*
D03*
X359842Y259055D02*
D03*
X362598Y253543D02*
D03*
X359842Y248031D02*
D03*
X362598Y242520D02*
D03*
X359842Y237008D02*
D03*
X362598Y231496D02*
D03*
X359842Y225984D02*
D03*
X362598Y220472D02*
D03*
X359842Y214961D02*
D03*
X362598Y209449D02*
D03*
X359842Y203937D02*
D03*
X362598Y198425D02*
D03*
X357086Y264567D02*
D03*
X354331Y259055D02*
D03*
X357086Y253543D02*
D03*
X354331Y248031D02*
D03*
X357086Y242520D02*
D03*
X354331Y237008D02*
D03*
X357086Y231496D02*
D03*
X354331Y225984D02*
D03*
X357086Y220472D02*
D03*
X354331Y214961D02*
D03*
X357086Y209449D02*
D03*
X354331Y203937D02*
D03*
X357086Y198425D02*
D03*
X351575Y264567D02*
D03*
X348819Y259055D02*
D03*
Y237008D02*
D03*
X351575Y231496D02*
D03*
X348819Y225984D02*
D03*
X351575Y220472D02*
D03*
Y198425D02*
D03*
X346063Y264567D02*
D03*
X343307Y259055D02*
D03*
Y237008D02*
D03*
X346063Y231496D02*
D03*
X343307Y225984D02*
D03*
X346063Y220472D02*
D03*
X340551Y264567D02*
D03*
X337795Y259055D02*
D03*
Y237008D02*
D03*
X340551Y231496D02*
D03*
X337795Y225984D02*
D03*
X340551Y220472D02*
D03*
X335039Y264567D02*
D03*
X332283Y259055D02*
D03*
X335039Y253543D02*
D03*
X332283Y248031D02*
D03*
X335039Y242520D02*
D03*
X332283Y237008D02*
D03*
X335039Y231496D02*
D03*
X332283Y225984D02*
D03*
X335039Y220472D02*
D03*
X332283Y214961D02*
D03*
Y203937D02*
D03*
X335039Y198425D02*
D03*
X329527Y264567D02*
D03*
X326771Y259055D02*
D03*
X329527Y253543D02*
D03*
X326771Y248031D02*
D03*
X329527Y242520D02*
D03*
X324016Y264567D02*
D03*
X321260Y259055D02*
D03*
X324016Y253543D02*
D03*
X321260Y248031D02*
D03*
X324016Y242520D02*
D03*
X318504Y264567D02*
D03*
X315748Y259055D02*
D03*
X318504Y253543D02*
D03*
X315748Y248031D02*
D03*
X318504Y242520D02*
D03*
X315748Y237008D02*
D03*
X312992Y264567D02*
D03*
X310236Y259055D02*
D03*
X312992Y253543D02*
D03*
X310236Y248031D02*
D03*
X312992Y242520D02*
D03*
X310236Y237008D02*
D03*
X307480Y264567D02*
D03*
X304724Y259055D02*
D03*
X307480Y253543D02*
D03*
X304724Y248031D02*
D03*
X307480Y242520D02*
D03*
X304724Y237008D02*
D03*
X301968Y264567D02*
D03*
X299213Y259055D02*
D03*
X301968Y253543D02*
D03*
X299213Y248031D02*
D03*
X301968Y242520D02*
D03*
X296457Y264567D02*
D03*
X293701Y259055D02*
D03*
X296457Y253543D02*
D03*
X293701Y248031D02*
D03*
X290945Y264567D02*
D03*
X288189Y259055D02*
D03*
X290945Y253543D02*
D03*
X288189Y248031D02*
D03*
X285433Y264567D02*
D03*
X282677Y259055D02*
D03*
X285433Y253543D02*
D03*
X282677Y248031D02*
D03*
X279921Y264567D02*
D03*
X277165Y259055D02*
D03*
X279921Y253543D02*
D03*
X277165Y248031D02*
D03*
X274409Y264567D02*
D03*
X271653Y259055D02*
D03*
X274409Y253543D02*
D03*
X271653Y248031D02*
D03*
X268898Y264567D02*
D03*
X266142Y259055D02*
D03*
X268898Y253543D02*
D03*
X266142Y248031D02*
D03*
Y237008D02*
D03*
X263386Y264567D02*
D03*
X260630Y259055D02*
D03*
X263386Y253543D02*
D03*
X260630Y248031D02*
D03*
X257874Y264567D02*
D03*
X255118Y259055D02*
D03*
X257874Y253543D02*
D03*
X255118Y248031D02*
D03*
X257874Y242520D02*
D03*
X252362Y264567D02*
D03*
Y253543D02*
D03*
Y242520D02*
D03*
X219291Y264567D02*
D03*
X216535Y259055D02*
D03*
X219291Y253543D02*
D03*
X216535Y248031D02*
D03*
X219291Y242520D02*
D03*
X216535Y237008D02*
D03*
M02*
