G04*
G04 #@! TF.GenerationSoftware,Altium Limited,Altium Designer,19.0.6 (157)*
G04*
G04 Layer_Color=128*
%FSLAX25Y25*%
%MOIN*%
G70*
G01*
G75*
%ADD12C,0.00200*%
D12*
X81093Y256693D02*
X85837D01*
X83465Y254321D02*
Y259065D01*
X61408Y256693D02*
X66152D01*
X63779Y254321D02*
Y259065D01*
X41722Y256693D02*
X46466D01*
X44094Y254321D02*
Y259065D01*
X113778Y208520D02*
X117978D01*
X115878Y206420D02*
Y210620D01*
X113778Y178992D02*
X117978D01*
X115878Y176892D02*
Y181092D01*
X102657Y258268D02*
X110728D01*
X106693Y254232D02*
Y262303D01*
X121161Y258268D02*
X129232D01*
X125197Y254232D02*
Y262303D01*
X139665Y258268D02*
X147736D01*
X143701Y254232D02*
Y262303D01*
X264778Y101492D02*
X268978D01*
X266878Y99392D02*
Y103592D01*
X264778Y131020D02*
X268978D01*
X266878Y128920D02*
Y133120D01*
X176378Y243701D02*
X192126D01*
X184252Y235827D02*
Y251575D01*
X176378Y185827D02*
X192126D01*
X184252Y177953D02*
Y193701D01*
X188778Y101965D02*
X192978D01*
X190878Y99865D02*
Y104065D01*
X188778Y131492D02*
X192978D01*
X190878Y129392D02*
Y133592D01*
X113778Y101992D02*
X117978D01*
X115878Y99892D02*
Y104092D01*
X113778Y131520D02*
X117978D01*
X115878Y129420D02*
Y133620D01*
X38778Y101965D02*
X42978D01*
X40878Y99865D02*
Y104065D01*
X38778Y131492D02*
X42978D01*
X40878Y129392D02*
Y133592D01*
X353346Y16535D02*
X365551D01*
X359449Y10433D02*
Y22638D01*
X13583Y255906D02*
X25787D01*
X19685Y249803D02*
Y262008D01*
X38778Y208520D02*
X42978D01*
X40878Y206420D02*
Y210620D01*
X38778Y178992D02*
X42978D01*
X40878Y176892D02*
Y181092D01*
X38778Y55492D02*
X42978D01*
X40878Y53392D02*
Y57592D01*
X38778Y25965D02*
X42978D01*
X40878Y23865D02*
Y28065D01*
X113778Y55520D02*
X117978D01*
X115878Y53420D02*
Y57620D01*
X113778Y25992D02*
X117978D01*
X115878Y23892D02*
Y28092D01*
X336221Y73622D02*
X351969D01*
X344094Y65748D02*
Y81496D01*
X188778Y55492D02*
X192978D01*
X190878Y53392D02*
Y57592D01*
X188778Y25965D02*
X192978D01*
X190878Y23865D02*
Y28065D01*
X264778Y55492D02*
X268978D01*
X266878Y53392D02*
Y57592D01*
X264778Y25965D02*
X268978D01*
X266878Y23865D02*
Y28065D01*
X336221Y143701D02*
X351969D01*
X344094Y135827D02*
Y151575D01*
X322344Y227244D02*
X325845D01*
X324095Y225494D02*
Y228994D01*
X322344Y237244D02*
X325845D01*
X324095Y235494D02*
Y238994D01*
X340144Y247244D02*
X348044D01*
X344094Y243294D02*
Y251194D01*
X340144Y207244D02*
X348044D01*
X344094Y203294D02*
Y211194D01*
X220527Y194488D02*
X223327D01*
X221927Y193088D02*
Y195888D01*
X223561Y189092D02*
X226361D01*
X224961Y187692D02*
Y190492D01*
X220243Y203928D02*
X223042D01*
X221642Y202528D02*
Y205328D01*
X226564Y207863D02*
X229364D01*
X227964Y206463D02*
Y209263D01*
X370275Y259055D02*
X371457D01*
X370866Y258465D02*
Y259646D01*
X370275Y248031D02*
X371457D01*
X370866Y247441D02*
Y248622D01*
X370275Y237008D02*
X371457D01*
X370866Y236417D02*
Y237598D01*
X370275Y225984D02*
X371457D01*
X370866Y225394D02*
Y226575D01*
X370275Y214961D02*
X371457D01*
X370866Y214370D02*
Y215551D01*
X370275Y203937D02*
X371457D01*
X370866Y203346D02*
Y204527D01*
X367519Y264567D02*
X368701D01*
X368110Y263976D02*
Y265157D01*
X364764Y259055D02*
X365945D01*
X365354Y258465D02*
Y259646D01*
X367519Y253543D02*
X368701D01*
X368110Y252953D02*
Y254134D01*
X364764Y248031D02*
X365945D01*
X365354Y247441D02*
Y248622D01*
X367519Y242520D02*
X368701D01*
X368110Y241929D02*
Y243110D01*
X364764Y237008D02*
X365945D01*
X365354Y236417D02*
Y237598D01*
X367519Y231496D02*
X368701D01*
X368110Y230905D02*
Y232086D01*
X364764Y225984D02*
X365945D01*
X365354Y225394D02*
Y226575D01*
X367519Y220472D02*
X368701D01*
X368110Y219882D02*
Y221063D01*
X364764Y214961D02*
X365945D01*
X365354Y214370D02*
Y215551D01*
X367519Y209449D02*
X368701D01*
X368110Y208858D02*
Y210039D01*
X364764Y203937D02*
X365945D01*
X365354Y203346D02*
Y204527D01*
X367519Y198425D02*
X368701D01*
X368110Y197835D02*
Y199016D01*
X362008Y264567D02*
X363189D01*
X362598Y263976D02*
Y265157D01*
X359252Y259055D02*
X360433D01*
X359842Y258465D02*
Y259646D01*
X362008Y253543D02*
X363189D01*
X362598Y252953D02*
Y254134D01*
X359252Y248031D02*
X360433D01*
X359842Y247441D02*
Y248622D01*
X362008Y242520D02*
X363189D01*
X362598Y241929D02*
Y243110D01*
X359252Y237008D02*
X360433D01*
X359842Y236417D02*
Y237598D01*
X362008Y231496D02*
X363189D01*
X362598Y230905D02*
Y232086D01*
X359252Y225984D02*
X360433D01*
X359842Y225394D02*
Y226575D01*
X362008Y220472D02*
X363189D01*
X362598Y219882D02*
Y221063D01*
X359252Y214961D02*
X360433D01*
X359842Y214370D02*
Y215551D01*
X362008Y209449D02*
X363189D01*
X362598Y208858D02*
Y210039D01*
X359252Y203937D02*
X360433D01*
X359842Y203346D02*
Y204527D01*
X362008Y198425D02*
X363189D01*
X362598Y197835D02*
Y199016D01*
X356496Y264567D02*
X357677D01*
X357086Y263976D02*
Y265157D01*
X353740Y259055D02*
X354921D01*
X354331Y258465D02*
Y259646D01*
X356496Y253543D02*
X357677D01*
X357086Y252953D02*
Y254134D01*
X353740Y248031D02*
X354921D01*
X354331Y247441D02*
Y248622D01*
X356496Y242520D02*
X357677D01*
X357086Y241929D02*
Y243110D01*
X353740Y237008D02*
X354921D01*
X354331Y236417D02*
Y237598D01*
X356496Y231496D02*
X357677D01*
X357086Y230905D02*
Y232086D01*
X353740Y225984D02*
X354921D01*
X354331Y225394D02*
Y226575D01*
X356496Y220472D02*
X357677D01*
X357086Y219882D02*
Y221063D01*
X353740Y214961D02*
X354921D01*
X354331Y214370D02*
Y215551D01*
X356496Y209449D02*
X357677D01*
X357086Y208858D02*
Y210039D01*
X353740Y203937D02*
X354921D01*
X354331Y203346D02*
Y204527D01*
X356496Y198425D02*
X357677D01*
X357086Y197835D02*
Y199016D01*
X350984Y264567D02*
X352165D01*
X351575Y263976D02*
Y265157D01*
X348228Y259055D02*
X349409D01*
X348819Y258465D02*
Y259646D01*
X348228Y237008D02*
X349409D01*
X348819Y236417D02*
Y237598D01*
X350984Y231496D02*
X352165D01*
X351575Y230905D02*
Y232086D01*
X348228Y225984D02*
X349409D01*
X348819Y225394D02*
Y226575D01*
X350984Y220472D02*
X352165D01*
X351575Y219882D02*
Y221063D01*
X350984Y198425D02*
X352165D01*
X351575Y197835D02*
Y199016D01*
X345472Y264567D02*
X346653D01*
X346063Y263976D02*
Y265157D01*
X342716Y259055D02*
X343898D01*
X343307Y258465D02*
Y259646D01*
X342716Y237008D02*
X343898D01*
X343307Y236417D02*
Y237598D01*
X345472Y231496D02*
X346653D01*
X346063Y230905D02*
Y232086D01*
X342716Y225984D02*
X343898D01*
X343307Y225394D02*
Y226575D01*
X345472Y220472D02*
X346653D01*
X346063Y219882D02*
Y221063D01*
X339961Y264567D02*
X341142D01*
X340551Y263976D02*
Y265157D01*
X337205Y259055D02*
X338386D01*
X337795Y258465D02*
Y259646D01*
X337205Y237008D02*
X338386D01*
X337795Y236417D02*
Y237598D01*
X339961Y231496D02*
X341142D01*
X340551Y230905D02*
Y232086D01*
X337205Y225984D02*
X338386D01*
X337795Y225394D02*
Y226575D01*
X339961Y220472D02*
X341142D01*
X340551Y219882D02*
Y221063D01*
X334449Y264567D02*
X335630D01*
X335039Y263976D02*
Y265157D01*
X331693Y259055D02*
X332874D01*
X332283Y258465D02*
Y259646D01*
X334449Y253543D02*
X335630D01*
X335039Y252953D02*
Y254134D01*
X331693Y248031D02*
X332874D01*
X332283Y247441D02*
Y248622D01*
X334449Y242520D02*
X335630D01*
X335039Y241929D02*
Y243110D01*
X331693Y237008D02*
X332874D01*
X332283Y236417D02*
Y237598D01*
X334449Y231496D02*
X335630D01*
X335039Y230905D02*
Y232086D01*
X331693Y225984D02*
X332874D01*
X332283Y225394D02*
Y226575D01*
X334449Y220472D02*
X335630D01*
X335039Y219882D02*
Y221063D01*
X331693Y214961D02*
X332874D01*
X332283Y214370D02*
Y215551D01*
X331693Y203937D02*
X332874D01*
X332283Y203346D02*
Y204527D01*
X334449Y198425D02*
X335630D01*
X335039Y197835D02*
Y199016D01*
X328937Y264567D02*
X330118D01*
X329527Y263976D02*
Y265157D01*
X326181Y259055D02*
X327362D01*
X326771Y258465D02*
Y259646D01*
X328937Y253543D02*
X330118D01*
X329527Y252953D02*
Y254134D01*
X326181Y248031D02*
X327362D01*
X326771Y247441D02*
Y248622D01*
X328937Y242520D02*
X330118D01*
X329527Y241929D02*
Y243110D01*
X323425Y264567D02*
X324606D01*
X324016Y263976D02*
Y265157D01*
X320669Y259055D02*
X321850D01*
X321260Y258465D02*
Y259646D01*
X323425Y253543D02*
X324606D01*
X324016Y252953D02*
Y254134D01*
X320669Y248031D02*
X321850D01*
X321260Y247441D02*
Y248622D01*
X323425Y242520D02*
X324606D01*
X324016Y241929D02*
Y243110D01*
X317913Y264567D02*
X319094D01*
X318504Y263976D02*
Y265157D01*
X315157Y259055D02*
X316338D01*
X315748Y258465D02*
Y259646D01*
X317913Y253543D02*
X319094D01*
X318504Y252953D02*
Y254134D01*
X315157Y248031D02*
X316338D01*
X315748Y247441D02*
Y248622D01*
X317913Y242520D02*
X319094D01*
X318504Y241929D02*
Y243110D01*
X315157Y237008D02*
X316338D01*
X315748Y236417D02*
Y237598D01*
X312402Y264567D02*
X313582D01*
X312992Y263976D02*
Y265157D01*
X309646Y259055D02*
X310827D01*
X310236Y258465D02*
Y259646D01*
X312402Y253543D02*
X313582D01*
X312992Y252953D02*
Y254134D01*
X309646Y248031D02*
X310827D01*
X310236Y247441D02*
Y248622D01*
X312402Y242520D02*
X313582D01*
X312992Y241929D02*
Y243110D01*
X309646Y237008D02*
X310827D01*
X310236Y236417D02*
Y237598D01*
X306890Y264567D02*
X308071D01*
X307480Y263976D02*
Y265157D01*
X304134Y259055D02*
X305315D01*
X304724Y258465D02*
Y259646D01*
X306890Y253543D02*
X308071D01*
X307480Y252953D02*
Y254134D01*
X304134Y248031D02*
X305315D01*
X304724Y247441D02*
Y248622D01*
X306890Y242520D02*
X308071D01*
X307480Y241929D02*
Y243110D01*
X304134Y237008D02*
X305315D01*
X304724Y236417D02*
Y237598D01*
X301378Y264567D02*
X302559D01*
X301968Y263976D02*
Y265157D01*
X298622Y259055D02*
X299803D01*
X299213Y258465D02*
Y259646D01*
X301378Y253543D02*
X302559D01*
X301968Y252953D02*
Y254134D01*
X298622Y248031D02*
X299803D01*
X299213Y247441D02*
Y248622D01*
X301378Y242520D02*
X302559D01*
X301968Y241929D02*
Y243110D01*
X295866Y264567D02*
X297047D01*
X296457Y263976D02*
Y265157D01*
X293110Y259055D02*
X294291D01*
X293701Y258465D02*
Y259646D01*
X295866Y253543D02*
X297047D01*
X296457Y252953D02*
Y254134D01*
X293110Y248031D02*
X294291D01*
X293701Y247441D02*
Y248622D01*
X290354Y264567D02*
X291535D01*
X290945Y263976D02*
Y265157D01*
X287598Y259055D02*
X288779D01*
X288189Y258465D02*
Y259646D01*
X290354Y253543D02*
X291535D01*
X290945Y252953D02*
Y254134D01*
X287598Y248031D02*
X288779D01*
X288189Y247441D02*
Y248622D01*
X284842Y264567D02*
X286023D01*
X285433Y263976D02*
Y265157D01*
X282086Y259055D02*
X283268D01*
X282677Y258465D02*
Y259646D01*
X284842Y253543D02*
X286023D01*
X285433Y252953D02*
Y254134D01*
X282086Y248031D02*
X283268D01*
X282677Y247441D02*
Y248622D01*
X279331Y264567D02*
X280512D01*
X279921Y263976D02*
Y265157D01*
X276575Y259055D02*
X277756D01*
X277165Y258465D02*
Y259646D01*
X279331Y253543D02*
X280512D01*
X279921Y252953D02*
Y254134D01*
X276575Y248031D02*
X277756D01*
X277165Y247441D02*
Y248622D01*
X273819Y264567D02*
X275000D01*
X274409Y263976D02*
Y265157D01*
X271063Y259055D02*
X272244D01*
X271653Y258465D02*
Y259646D01*
X273819Y253543D02*
X275000D01*
X274409Y252953D02*
Y254134D01*
X271063Y248031D02*
X272244D01*
X271653Y247441D02*
Y248622D01*
X268307Y264567D02*
X269488D01*
X268898Y263976D02*
Y265157D01*
X265551Y259055D02*
X266732D01*
X266142Y258465D02*
Y259646D01*
X268307Y253543D02*
X269488D01*
X268898Y252953D02*
Y254134D01*
X265551Y248031D02*
X266732D01*
X266142Y247441D02*
Y248622D01*
X265551Y237008D02*
X266732D01*
X266142Y236417D02*
Y237598D01*
X262795Y264567D02*
X263976D01*
X263386Y263976D02*
Y265157D01*
X260039Y259055D02*
X261220D01*
X260630Y258465D02*
Y259646D01*
X262795Y253543D02*
X263976D01*
X263386Y252953D02*
Y254134D01*
X260039Y248031D02*
X261220D01*
X260630Y247441D02*
Y248622D01*
X257283Y264567D02*
X258464D01*
X257874Y263976D02*
Y265157D01*
X254527Y259055D02*
X255709D01*
X255118Y258465D02*
Y259646D01*
X257283Y253543D02*
X258464D01*
X257874Y252953D02*
Y254134D01*
X254527Y248031D02*
X255709D01*
X255118Y247441D02*
Y248622D01*
X257283Y242520D02*
X258464D01*
X257874Y241929D02*
Y243110D01*
X251771Y264567D02*
X252953D01*
X252362Y263976D02*
Y265157D01*
X251771Y253543D02*
X252953D01*
X252362Y252953D02*
Y254134D01*
X251771Y242520D02*
X252953D01*
X252362Y241929D02*
Y243110D01*
X218701Y264567D02*
X219882D01*
X219291Y263976D02*
Y265157D01*
X215945Y259055D02*
X217126D01*
X216535Y258465D02*
Y259646D01*
X218701Y253543D02*
X219882D01*
X219291Y252953D02*
Y254134D01*
X215945Y248031D02*
X217126D01*
X216535Y247441D02*
Y248622D01*
X218701Y242520D02*
X219882D01*
X219291Y241929D02*
Y243110D01*
X215945Y237008D02*
X217126D01*
X216535Y236417D02*
Y237598D01*
M02*
