G04*
G04 #@! TF.GenerationSoftware,Altium Limited,Altium Designer,19.0.6 (157)*
G04*
G04 Layer_Color=2752767*
%FSLAX25Y25*%
%MOIN*%
G70*
G01*
G75*
%ADD12C,0.00200*%
%ADD60C,0.00267*%
D12*
X82665Y255893D02*
Y257493D01*
X84265D01*
Y255893D01*
X82665D01*
X62980D02*
Y257493D01*
X64579D01*
Y255893D01*
X62980D01*
X43295D02*
Y257493D01*
X44894D01*
Y255893D01*
X43295D01*
X106693Y257468D02*
X105893Y259068D01*
X107493D01*
X106693Y257468D01*
X125197D02*
X124397Y259068D01*
X125997D01*
X125197Y257468D01*
X143701D02*
X142901Y259068D01*
X144501D01*
X143701Y257468D01*
X184252Y242901D02*
X184652Y243301D01*
X185052D01*
X184652Y243701D01*
X185052Y244101D01*
X184652D01*
X184252Y244501D01*
X183852Y244101D01*
X183452D01*
X183852Y243701D01*
X183452Y243301D01*
X183852D01*
X184252Y242901D01*
Y185027D02*
X184652Y185427D01*
X185052D01*
X184652Y185827D01*
X185052Y186227D01*
X184652D01*
X184252Y186627D01*
X183852Y186227D01*
X183452D01*
X183852Y185827D01*
X183452Y185427D01*
X183852D01*
X184252Y185027D01*
X358649Y15735D02*
X359049Y16535D01*
X358649Y17335D01*
X359449Y16935D01*
X360249Y17335D01*
X359849Y16535D01*
X360249Y15735D01*
X359449Y16135D01*
X358649Y15735D01*
X18885Y255105D02*
X19285Y255906D01*
X18885Y256705D01*
X19685Y256306D01*
X20485Y256705D01*
X20085Y255906D01*
X20485Y255105D01*
X19685Y255505D01*
X18885Y255105D01*
X344094Y72822D02*
X344495Y73222D01*
X344895D01*
X344495Y73622D01*
X344895Y74022D01*
X344495D01*
X344094Y74422D01*
X343694Y74022D01*
X343295D01*
X343694Y73622D01*
X343295Y73222D01*
X343694D01*
X344094Y72822D01*
Y142901D02*
X344495Y143301D01*
X344895D01*
X344495Y143701D01*
X344895Y144101D01*
X344495D01*
X344094Y144501D01*
X343694Y144101D01*
X343295D01*
X343694Y143701D01*
X343295Y143301D01*
X343694D01*
X344094Y142901D01*
X323694Y226844D02*
Y226444D01*
X324495D01*
Y226844D01*
X324894D01*
Y227644D01*
X324495D01*
Y228044D01*
X323694D01*
Y227644D01*
X323294D01*
Y226844D01*
X323694D01*
Y236844D02*
Y236444D01*
X324495D01*
Y236844D01*
X324894D01*
Y237644D01*
X324495D01*
Y238044D01*
X323694D01*
Y237644D01*
X323294D01*
Y236844D01*
X323694D01*
X343295Y246444D02*
X343694D01*
X344094Y246844D01*
X344495Y246444D01*
X344895D01*
Y246844D01*
X344495Y247244D01*
X344895Y247644D01*
Y248044D01*
X344495D01*
X344094Y247644D01*
X343694Y248044D01*
X343295D01*
Y247644D01*
X343694Y247244D01*
X343295Y246844D01*
Y246444D01*
Y206444D02*
X343694D01*
X344094Y206844D01*
X344495Y206444D01*
X344895D01*
Y206844D01*
X344495Y207244D01*
X344895Y207644D01*
Y208044D01*
X344495D01*
X344094Y207644D01*
X343694Y208044D01*
X343295D01*
Y207644D01*
X343694Y207244D01*
X343295Y206844D01*
Y206444D01*
X221127Y194488D02*
X221927Y195288D01*
X222727Y194488D01*
X221927Y193688D01*
X221127Y194488D01*
X224161Y189092D02*
X224961Y189892D01*
X225761Y189092D01*
X224961Y188292D01*
X224161Y189092D01*
X220843Y203928D02*
X221642Y204728D01*
X222443Y203928D01*
X221642Y203128D01*
X220843Y203928D01*
X227164Y207863D02*
X227964Y208663D01*
X228764Y207863D01*
X227964Y207063D01*
X227164Y207863D01*
X370066Y258255D02*
Y259855D01*
X371666D01*
Y258255D01*
X370066D01*
X370466Y258655D02*
Y259455D01*
X371266D01*
Y258655D01*
X370466D01*
X370066Y247231D02*
Y248831D01*
X371666D01*
Y247231D01*
X370066D01*
X370466Y247631D02*
Y248431D01*
X371266D01*
Y247631D01*
X370466D01*
X370066Y236208D02*
Y237808D01*
X371666D01*
Y236208D01*
X370066D01*
X370466Y236608D02*
Y237408D01*
X371266D01*
Y236608D01*
X370466D01*
X370066Y225184D02*
Y226784D01*
X371666D01*
Y225184D01*
X370066D01*
X370466Y225584D02*
Y226384D01*
X371266D01*
Y225584D01*
X370466D01*
X370066Y214161D02*
Y215761D01*
X371666D01*
Y214161D01*
X370066D01*
X370466Y214561D02*
Y215361D01*
X371266D01*
Y214561D01*
X370466D01*
X370066Y203137D02*
Y204737D01*
X371666D01*
Y203137D01*
X370066D01*
X370466Y203537D02*
Y204337D01*
X371266D01*
Y203537D01*
X370466D01*
X367310Y263767D02*
Y265367D01*
X368910D01*
Y263767D01*
X367310D01*
X367710Y264167D02*
Y264967D01*
X368510D01*
Y264167D01*
X367710D01*
X364554Y258255D02*
Y259855D01*
X366154D01*
Y258255D01*
X364554D01*
X364954Y258655D02*
Y259455D01*
X365754D01*
Y258655D01*
X364954D01*
X367310Y252743D02*
Y254343D01*
X368910D01*
Y252743D01*
X367310D01*
X367710Y253143D02*
Y253943D01*
X368510D01*
Y253143D01*
X367710D01*
X364554Y247231D02*
Y248831D01*
X366154D01*
Y247231D01*
X364554D01*
X364954Y247631D02*
Y248431D01*
X365754D01*
Y247631D01*
X364954D01*
X367310Y241720D02*
Y243320D01*
X368910D01*
Y241720D01*
X367310D01*
X367710Y242120D02*
Y242920D01*
X368510D01*
Y242120D01*
X367710D01*
X364554Y236208D02*
Y237808D01*
X366154D01*
Y236208D01*
X364554D01*
X364954Y236608D02*
Y237408D01*
X365754D01*
Y236608D01*
X364954D01*
X367310Y230696D02*
Y232296D01*
X368910D01*
Y230696D01*
X367310D01*
X367710Y231096D02*
Y231896D01*
X368510D01*
Y231096D01*
X367710D01*
X364554Y225184D02*
Y226784D01*
X366154D01*
Y225184D01*
X364554D01*
X364954Y225584D02*
Y226384D01*
X365754D01*
Y225584D01*
X364954D01*
X367310Y219672D02*
Y221272D01*
X368910D01*
Y219672D01*
X367310D01*
X367710Y220072D02*
Y220872D01*
X368510D01*
Y220072D01*
X367710D01*
X364554Y214161D02*
Y215761D01*
X366154D01*
Y214161D01*
X364554D01*
X364954Y214561D02*
Y215361D01*
X365754D01*
Y214561D01*
X364954D01*
X367310Y208649D02*
Y210249D01*
X368910D01*
Y208649D01*
X367310D01*
X367710Y209049D02*
Y209849D01*
X368510D01*
Y209049D01*
X367710D01*
X364554Y203137D02*
Y204737D01*
X366154D01*
Y203137D01*
X364554D01*
X364954Y203537D02*
Y204337D01*
X365754D01*
Y203537D01*
X364954D01*
X367310Y197625D02*
Y199225D01*
X368910D01*
Y197625D01*
X367310D01*
X367710Y198025D02*
Y198825D01*
X368510D01*
Y198025D01*
X367710D01*
X361798Y263767D02*
Y265367D01*
X363398D01*
Y263767D01*
X361798D01*
X362198Y264167D02*
Y264967D01*
X362998D01*
Y264167D01*
X362198D01*
X359042Y258255D02*
Y259855D01*
X360642D01*
Y258255D01*
X359042D01*
X359442Y258655D02*
Y259455D01*
X360242D01*
Y258655D01*
X359442D01*
X361798Y252743D02*
Y254343D01*
X363398D01*
Y252743D01*
X361798D01*
X362198Y253143D02*
Y253943D01*
X362998D01*
Y253143D01*
X362198D01*
X359042Y247231D02*
Y248831D01*
X360642D01*
Y247231D01*
X359042D01*
X359442Y247631D02*
Y248431D01*
X360242D01*
Y247631D01*
X359442D01*
X361798Y241720D02*
Y243320D01*
X363398D01*
Y241720D01*
X361798D01*
X362198Y242120D02*
Y242920D01*
X362998D01*
Y242120D01*
X362198D01*
X359042Y236208D02*
Y237808D01*
X360642D01*
Y236208D01*
X359042D01*
X359442Y236608D02*
Y237408D01*
X360242D01*
Y236608D01*
X359442D01*
X361798Y230696D02*
Y232296D01*
X363398D01*
Y230696D01*
X361798D01*
X362198Y231096D02*
Y231896D01*
X362998D01*
Y231096D01*
X362198D01*
X359042Y225184D02*
Y226784D01*
X360642D01*
Y225184D01*
X359042D01*
X359442Y225584D02*
Y226384D01*
X360242D01*
Y225584D01*
X359442D01*
X361798Y219672D02*
Y221272D01*
X363398D01*
Y219672D01*
X361798D01*
X362198Y220072D02*
Y220872D01*
X362998D01*
Y220072D01*
X362198D01*
X359042Y214161D02*
Y215761D01*
X360642D01*
Y214161D01*
X359042D01*
X359442Y214561D02*
Y215361D01*
X360242D01*
Y214561D01*
X359442D01*
X361798Y208649D02*
Y210249D01*
X363398D01*
Y208649D01*
X361798D01*
X362198Y209049D02*
Y209849D01*
X362998D01*
Y209049D01*
X362198D01*
X359042Y203137D02*
Y204737D01*
X360642D01*
Y203137D01*
X359042D01*
X359442Y203537D02*
Y204337D01*
X360242D01*
Y203537D01*
X359442D01*
X361798Y197625D02*
Y199225D01*
X363398D01*
Y197625D01*
X361798D01*
X362198Y198025D02*
Y198825D01*
X362998D01*
Y198025D01*
X362198D01*
X356287Y263767D02*
Y265367D01*
X357887D01*
Y263767D01*
X356287D01*
X356686Y264167D02*
Y264967D01*
X357487D01*
Y264167D01*
X356686D01*
X353531Y258255D02*
Y259855D01*
X355131D01*
Y258255D01*
X353531D01*
X353931Y258655D02*
Y259455D01*
X354731D01*
Y258655D01*
X353931D01*
X356287Y252743D02*
Y254343D01*
X357887D01*
Y252743D01*
X356287D01*
X356686Y253143D02*
Y253943D01*
X357487D01*
Y253143D01*
X356686D01*
X353531Y247231D02*
Y248831D01*
X355131D01*
Y247231D01*
X353531D01*
X353931Y247631D02*
Y248431D01*
X354731D01*
Y247631D01*
X353931D01*
X356287Y241720D02*
Y243320D01*
X357887D01*
Y241720D01*
X356287D01*
X356686Y242120D02*
Y242920D01*
X357487D01*
Y242120D01*
X356686D01*
X353531Y236208D02*
Y237808D01*
X355131D01*
Y236208D01*
X353531D01*
X353931Y236608D02*
Y237408D01*
X354731D01*
Y236608D01*
X353931D01*
X356287Y230696D02*
Y232296D01*
X357887D01*
Y230696D01*
X356287D01*
X356686Y231096D02*
Y231896D01*
X357487D01*
Y231096D01*
X356686D01*
X353531Y225184D02*
Y226784D01*
X355131D01*
Y225184D01*
X353531D01*
X353931Y225584D02*
Y226384D01*
X354731D01*
Y225584D01*
X353931D01*
X356287Y219672D02*
Y221272D01*
X357887D01*
Y219672D01*
X356287D01*
X356686Y220072D02*
Y220872D01*
X357487D01*
Y220072D01*
X356686D01*
X353531Y214161D02*
Y215761D01*
X355131D01*
Y214161D01*
X353531D01*
X353931Y214561D02*
Y215361D01*
X354731D01*
Y214561D01*
X353931D01*
X356287Y208649D02*
Y210249D01*
X357887D01*
Y208649D01*
X356287D01*
X356686Y209049D02*
Y209849D01*
X357487D01*
Y209049D01*
X356686D01*
X353531Y203137D02*
Y204737D01*
X355131D01*
Y203137D01*
X353531D01*
X353931Y203537D02*
Y204337D01*
X354731D01*
Y203537D01*
X353931D01*
X356287Y197625D02*
Y199225D01*
X357887D01*
Y197625D01*
X356287D01*
X356686Y198025D02*
Y198825D01*
X357487D01*
Y198025D01*
X356686D01*
X350775Y263767D02*
Y265367D01*
X352375D01*
Y263767D01*
X350775D01*
X351175Y264167D02*
Y264967D01*
X351975D01*
Y264167D01*
X351175D01*
X348019Y258255D02*
Y259855D01*
X349619D01*
Y258255D01*
X348019D01*
X348419Y258655D02*
Y259455D01*
X349219D01*
Y258655D01*
X348419D01*
X348019Y236208D02*
Y237808D01*
X349619D01*
Y236208D01*
X348019D01*
X348419Y236608D02*
Y237408D01*
X349219D01*
Y236608D01*
X348419D01*
X350775Y230696D02*
Y232296D01*
X352375D01*
Y230696D01*
X350775D01*
X351175Y231096D02*
Y231896D01*
X351975D01*
Y231096D01*
X351175D01*
X348019Y225184D02*
Y226784D01*
X349619D01*
Y225184D01*
X348019D01*
X348419Y225584D02*
Y226384D01*
X349219D01*
Y225584D01*
X348419D01*
X350775Y219672D02*
Y221272D01*
X352375D01*
Y219672D01*
X350775D01*
X351175Y220072D02*
Y220872D01*
X351975D01*
Y220072D01*
X351175D01*
X350775Y197625D02*
Y199225D01*
X352375D01*
Y197625D01*
X350775D01*
X351175Y198025D02*
Y198825D01*
X351975D01*
Y198025D01*
X351175D01*
X345263Y263767D02*
Y265367D01*
X346863D01*
Y263767D01*
X345263D01*
X345663Y264167D02*
Y264967D01*
X346463D01*
Y264167D01*
X345663D01*
X342507Y258255D02*
Y259855D01*
X344107D01*
Y258255D01*
X342507D01*
X342907Y258655D02*
Y259455D01*
X343707D01*
Y258655D01*
X342907D01*
X342507Y236208D02*
Y237808D01*
X344107D01*
Y236208D01*
X342507D01*
X342907Y236608D02*
Y237408D01*
X343707D01*
Y236608D01*
X342907D01*
X345263Y230696D02*
Y232296D01*
X346863D01*
Y230696D01*
X345263D01*
X345663Y231096D02*
Y231896D01*
X346463D01*
Y231096D01*
X345663D01*
X342507Y225184D02*
Y226784D01*
X344107D01*
Y225184D01*
X342507D01*
X342907Y225584D02*
Y226384D01*
X343707D01*
Y225584D01*
X342907D01*
X345263Y219672D02*
Y221272D01*
X346863D01*
Y219672D01*
X345263D01*
X345663Y220072D02*
Y220872D01*
X346463D01*
Y220072D01*
X345663D01*
X339751Y263767D02*
Y265367D01*
X341351D01*
Y263767D01*
X339751D01*
X340151Y264167D02*
Y264967D01*
X340951D01*
Y264167D01*
X340151D01*
X336995Y258255D02*
Y259855D01*
X338595D01*
Y258255D01*
X336995D01*
X337395Y258655D02*
Y259455D01*
X338195D01*
Y258655D01*
X337395D01*
X336995Y236208D02*
Y237808D01*
X338595D01*
Y236208D01*
X336995D01*
X337395Y236608D02*
Y237408D01*
X338195D01*
Y236608D01*
X337395D01*
X339751Y230696D02*
Y232296D01*
X341351D01*
Y230696D01*
X339751D01*
X340151Y231096D02*
Y231896D01*
X340951D01*
Y231096D01*
X340151D01*
X336995Y225184D02*
Y226784D01*
X338595D01*
Y225184D01*
X336995D01*
X337395Y225584D02*
Y226384D01*
X338195D01*
Y225584D01*
X337395D01*
X339751Y219672D02*
Y221272D01*
X341351D01*
Y219672D01*
X339751D01*
X340151Y220072D02*
Y220872D01*
X340951D01*
Y220072D01*
X340151D01*
X334239Y263767D02*
Y265367D01*
X335839D01*
Y263767D01*
X334239D01*
X334639Y264167D02*
Y264967D01*
X335439D01*
Y264167D01*
X334639D01*
X331483Y258255D02*
Y259855D01*
X333083D01*
Y258255D01*
X331483D01*
X331883Y258655D02*
Y259455D01*
X332683D01*
Y258655D01*
X331883D01*
X334239Y252743D02*
Y254343D01*
X335839D01*
Y252743D01*
X334239D01*
X334639Y253143D02*
Y253943D01*
X335439D01*
Y253143D01*
X334639D01*
X331483Y247231D02*
Y248831D01*
X333083D01*
Y247231D01*
X331483D01*
X331883Y247631D02*
Y248431D01*
X332683D01*
Y247631D01*
X331883D01*
X334239Y241720D02*
Y243320D01*
X335839D01*
Y241720D01*
X334239D01*
X334639Y242120D02*
Y242920D01*
X335439D01*
Y242120D01*
X334639D01*
X331483Y236208D02*
Y237808D01*
X333083D01*
Y236208D01*
X331483D01*
X331883Y236608D02*
Y237408D01*
X332683D01*
Y236608D01*
X331883D01*
X334239Y230696D02*
Y232296D01*
X335839D01*
Y230696D01*
X334239D01*
X334639Y231096D02*
Y231896D01*
X335439D01*
Y231096D01*
X334639D01*
X331483Y225184D02*
Y226784D01*
X333083D01*
Y225184D01*
X331483D01*
X331883Y225584D02*
Y226384D01*
X332683D01*
Y225584D01*
X331883D01*
X334239Y219672D02*
Y221272D01*
X335839D01*
Y219672D01*
X334239D01*
X334639Y220072D02*
Y220872D01*
X335439D01*
Y220072D01*
X334639D01*
X331483Y214161D02*
Y215761D01*
X333083D01*
Y214161D01*
X331483D01*
X331883Y214561D02*
Y215361D01*
X332683D01*
Y214561D01*
X331883D01*
X331483Y203137D02*
Y204737D01*
X333083D01*
Y203137D01*
X331483D01*
X331883Y203537D02*
Y204337D01*
X332683D01*
Y203537D01*
X331883D01*
X334239Y197625D02*
Y199225D01*
X335839D01*
Y197625D01*
X334239D01*
X334639Y198025D02*
Y198825D01*
X335439D01*
Y198025D01*
X334639D01*
X328727Y263767D02*
Y265367D01*
X330327D01*
Y263767D01*
X328727D01*
X329127Y264167D02*
Y264967D01*
X329927D01*
Y264167D01*
X329127D01*
X325972Y258255D02*
Y259855D01*
X327572D01*
Y258255D01*
X325972D01*
X326372Y258655D02*
Y259455D01*
X327171D01*
Y258655D01*
X326372D01*
X328727Y252743D02*
Y254343D01*
X330327D01*
Y252743D01*
X328727D01*
X329127Y253143D02*
Y253943D01*
X329927D01*
Y253143D01*
X329127D01*
X325972Y247231D02*
Y248831D01*
X327572D01*
Y247231D01*
X325972D01*
X326372Y247631D02*
Y248431D01*
X327171D01*
Y247631D01*
X326372D01*
X328727Y241720D02*
Y243320D01*
X330327D01*
Y241720D01*
X328727D01*
X329127Y242120D02*
Y242920D01*
X329927D01*
Y242120D01*
X329127D01*
X323216Y263767D02*
Y265367D01*
X324816D01*
Y263767D01*
X323216D01*
X323616Y264167D02*
Y264967D01*
X324416D01*
Y264167D01*
X323616D01*
X320460Y258255D02*
Y259855D01*
X322060D01*
Y258255D01*
X320460D01*
X320860Y258655D02*
Y259455D01*
X321660D01*
Y258655D01*
X320860D01*
X323216Y252743D02*
Y254343D01*
X324816D01*
Y252743D01*
X323216D01*
X323616Y253143D02*
Y253943D01*
X324416D01*
Y253143D01*
X323616D01*
X320460Y247231D02*
Y248831D01*
X322060D01*
Y247231D01*
X320460D01*
X320860Y247631D02*
Y248431D01*
X321660D01*
Y247631D01*
X320860D01*
X323216Y241720D02*
Y243320D01*
X324816D01*
Y241720D01*
X323216D01*
X323616Y242120D02*
Y242920D01*
X324416D01*
Y242120D01*
X323616D01*
X317704Y263767D02*
Y265367D01*
X319304D01*
Y263767D01*
X317704D01*
X318104Y264167D02*
Y264967D01*
X318904D01*
Y264167D01*
X318104D01*
X314948Y258255D02*
Y259855D01*
X316548D01*
Y258255D01*
X314948D01*
X315348Y258655D02*
Y259455D01*
X316148D01*
Y258655D01*
X315348D01*
X317704Y252743D02*
Y254343D01*
X319304D01*
Y252743D01*
X317704D01*
X318104Y253143D02*
Y253943D01*
X318904D01*
Y253143D01*
X318104D01*
X314948Y247231D02*
Y248831D01*
X316548D01*
Y247231D01*
X314948D01*
X315348Y247631D02*
Y248431D01*
X316148D01*
Y247631D01*
X315348D01*
X317704Y241720D02*
Y243320D01*
X319304D01*
Y241720D01*
X317704D01*
X318104Y242120D02*
Y242920D01*
X318904D01*
Y242120D01*
X318104D01*
X314948Y236208D02*
Y237808D01*
X316548D01*
Y236208D01*
X314948D01*
X315348Y236608D02*
Y237408D01*
X316148D01*
Y236608D01*
X315348D01*
X312192Y263767D02*
Y265367D01*
X313792D01*
Y263767D01*
X312192D01*
X312592Y264167D02*
Y264967D01*
X313392D01*
Y264167D01*
X312592D01*
X309436Y258255D02*
Y259855D01*
X311036D01*
Y258255D01*
X309436D01*
X309836Y258655D02*
Y259455D01*
X310636D01*
Y258655D01*
X309836D01*
X312192Y252743D02*
Y254343D01*
X313792D01*
Y252743D01*
X312192D01*
X312592Y253143D02*
Y253943D01*
X313392D01*
Y253143D01*
X312592D01*
X309436Y247231D02*
Y248831D01*
X311036D01*
Y247231D01*
X309436D01*
X309836Y247631D02*
Y248431D01*
X310636D01*
Y247631D01*
X309836D01*
X312192Y241720D02*
Y243320D01*
X313792D01*
Y241720D01*
X312192D01*
X312592Y242120D02*
Y242920D01*
X313392D01*
Y242120D01*
X312592D01*
X309436Y236208D02*
Y237808D01*
X311036D01*
Y236208D01*
X309436D01*
X309836Y236608D02*
Y237408D01*
X310636D01*
Y236608D01*
X309836D01*
X306680Y263767D02*
Y265367D01*
X308280D01*
Y263767D01*
X306680D01*
X307080Y264167D02*
Y264967D01*
X307880D01*
Y264167D01*
X307080D01*
X303924Y258255D02*
Y259855D01*
X305524D01*
Y258255D01*
X303924D01*
X304324Y258655D02*
Y259455D01*
X305124D01*
Y258655D01*
X304324D01*
X306680Y252743D02*
Y254343D01*
X308280D01*
Y252743D01*
X306680D01*
X307080Y253143D02*
Y253943D01*
X307880D01*
Y253143D01*
X307080D01*
X303924Y247231D02*
Y248831D01*
X305524D01*
Y247231D01*
X303924D01*
X304324Y247631D02*
Y248431D01*
X305124D01*
Y247631D01*
X304324D01*
X306680Y241720D02*
Y243320D01*
X308280D01*
Y241720D01*
X306680D01*
X307080Y242120D02*
Y242920D01*
X307880D01*
Y242120D01*
X307080D01*
X303924Y236208D02*
Y237808D01*
X305524D01*
Y236208D01*
X303924D01*
X304324Y236608D02*
Y237408D01*
X305124D01*
Y236608D01*
X304324D01*
X301168Y263767D02*
Y265367D01*
X302768D01*
Y263767D01*
X301168D01*
X301568Y264167D02*
Y264967D01*
X302368D01*
Y264167D01*
X301568D01*
X298412Y258255D02*
Y259855D01*
X300012D01*
Y258255D01*
X298412D01*
X298813Y258655D02*
Y259455D01*
X299612D01*
Y258655D01*
X298813D01*
X301168Y252743D02*
Y254343D01*
X302768D01*
Y252743D01*
X301168D01*
X301568Y253143D02*
Y253943D01*
X302368D01*
Y253143D01*
X301568D01*
X298412Y247231D02*
Y248831D01*
X300012D01*
Y247231D01*
X298412D01*
X298813Y247631D02*
Y248431D01*
X299612D01*
Y247631D01*
X298813D01*
X301168Y241720D02*
Y243320D01*
X302768D01*
Y241720D01*
X301168D01*
X301568Y242120D02*
Y242920D01*
X302368D01*
Y242120D01*
X301568D01*
X295657Y263767D02*
Y265367D01*
X297257D01*
Y263767D01*
X295657D01*
X296057Y264167D02*
Y264967D01*
X296857D01*
Y264167D01*
X296057D01*
X292901Y258255D02*
Y259855D01*
X294501D01*
Y258255D01*
X292901D01*
X293301Y258655D02*
Y259455D01*
X294101D01*
Y258655D01*
X293301D01*
X295657Y252743D02*
Y254343D01*
X297257D01*
Y252743D01*
X295657D01*
X296057Y253143D02*
Y253943D01*
X296857D01*
Y253143D01*
X296057D01*
X292901Y247231D02*
Y248831D01*
X294501D01*
Y247231D01*
X292901D01*
X293301Y247631D02*
Y248431D01*
X294101D01*
Y247631D01*
X293301D01*
X290145Y263767D02*
Y265367D01*
X291745D01*
Y263767D01*
X290145D01*
X290545Y264167D02*
Y264967D01*
X291345D01*
Y264167D01*
X290545D01*
X287389Y258255D02*
Y259855D01*
X288989D01*
Y258255D01*
X287389D01*
X287789Y258655D02*
Y259455D01*
X288589D01*
Y258655D01*
X287789D01*
X290145Y252743D02*
Y254343D01*
X291745D01*
Y252743D01*
X290145D01*
X290545Y253143D02*
Y253943D01*
X291345D01*
Y253143D01*
X290545D01*
X287389Y247231D02*
Y248831D01*
X288989D01*
Y247231D01*
X287389D01*
X287789Y247631D02*
Y248431D01*
X288589D01*
Y247631D01*
X287789D01*
X284633Y263767D02*
Y265367D01*
X286233D01*
Y263767D01*
X284633D01*
X285033Y264167D02*
Y264967D01*
X285833D01*
Y264167D01*
X285033D01*
X281877Y258255D02*
Y259855D01*
X283477D01*
Y258255D01*
X281877D01*
X282277Y258655D02*
Y259455D01*
X283077D01*
Y258655D01*
X282277D01*
X284633Y252743D02*
Y254343D01*
X286233D01*
Y252743D01*
X284633D01*
X285033Y253143D02*
Y253943D01*
X285833D01*
Y253143D01*
X285033D01*
X281877Y247231D02*
Y248831D01*
X283477D01*
Y247231D01*
X281877D01*
X282277Y247631D02*
Y248431D01*
X283077D01*
Y247631D01*
X282277D01*
X279121Y263767D02*
Y265367D01*
X280721D01*
Y263767D01*
X279121D01*
X279521Y264167D02*
Y264967D01*
X280321D01*
Y264167D01*
X279521D01*
X276365Y258255D02*
Y259855D01*
X277965D01*
Y258255D01*
X276365D01*
X276765Y258655D02*
Y259455D01*
X277565D01*
Y258655D01*
X276765D01*
X279121Y252743D02*
Y254343D01*
X280721D01*
Y252743D01*
X279121D01*
X279521Y253143D02*
Y253943D01*
X280321D01*
Y253143D01*
X279521D01*
X276365Y247231D02*
Y248831D01*
X277965D01*
Y247231D01*
X276365D01*
X276765Y247631D02*
Y248431D01*
X277565D01*
Y247631D01*
X276765D01*
X273609Y263767D02*
Y265367D01*
X275209D01*
Y263767D01*
X273609D01*
X274009Y264167D02*
Y264967D01*
X274809D01*
Y264167D01*
X274009D01*
X270853Y258255D02*
Y259855D01*
X272453D01*
Y258255D01*
X270853D01*
X271253Y258655D02*
Y259455D01*
X272053D01*
Y258655D01*
X271253D01*
X273609Y252743D02*
Y254343D01*
X275209D01*
Y252743D01*
X273609D01*
X274009Y253143D02*
Y253943D01*
X274809D01*
Y253143D01*
X274009D01*
X270853Y247231D02*
Y248831D01*
X272453D01*
Y247231D01*
X270853D01*
X271253Y247631D02*
Y248431D01*
X272053D01*
Y247631D01*
X271253D01*
X268097Y263767D02*
Y265367D01*
X269697D01*
Y263767D01*
X268097D01*
X268497Y264167D02*
Y264967D01*
X269298D01*
Y264167D01*
X268497D01*
X265342Y258255D02*
Y259855D01*
X266942D01*
Y258255D01*
X265342D01*
X265742Y258655D02*
Y259455D01*
X266542D01*
Y258655D01*
X265742D01*
X268097Y252743D02*
Y254343D01*
X269697D01*
Y252743D01*
X268097D01*
X268497Y253143D02*
Y253943D01*
X269298D01*
Y253143D01*
X268497D01*
X265342Y247231D02*
Y248831D01*
X266942D01*
Y247231D01*
X265342D01*
X265742Y247631D02*
Y248431D01*
X266542D01*
Y247631D01*
X265742D01*
X265342Y236208D02*
Y237808D01*
X266942D01*
Y236208D01*
X265342D01*
X265742Y236608D02*
Y237408D01*
X266542D01*
Y236608D01*
X265742D01*
X262586Y263767D02*
Y265367D01*
X264186D01*
Y263767D01*
X262586D01*
X262986Y264167D02*
Y264967D01*
X263786D01*
Y264167D01*
X262986D01*
X259830Y258255D02*
Y259855D01*
X261430D01*
Y258255D01*
X259830D01*
X260230Y258655D02*
Y259455D01*
X261030D01*
Y258655D01*
X260230D01*
X262586Y252743D02*
Y254343D01*
X264186D01*
Y252743D01*
X262586D01*
X262986Y253143D02*
Y253943D01*
X263786D01*
Y253143D01*
X262986D01*
X259830Y247231D02*
Y248831D01*
X261430D01*
Y247231D01*
X259830D01*
X260230Y247631D02*
Y248431D01*
X261030D01*
Y247631D01*
X260230D01*
X257074Y263767D02*
Y265367D01*
X258674D01*
Y263767D01*
X257074D01*
X257474Y264167D02*
Y264967D01*
X258274D01*
Y264167D01*
X257474D01*
X254318Y258255D02*
Y259855D01*
X255918D01*
Y258255D01*
X254318D01*
X254718Y258655D02*
Y259455D01*
X255518D01*
Y258655D01*
X254718D01*
X257074Y252743D02*
Y254343D01*
X258674D01*
Y252743D01*
X257074D01*
X257474Y253143D02*
Y253943D01*
X258274D01*
Y253143D01*
X257474D01*
X254318Y247231D02*
Y248831D01*
X255918D01*
Y247231D01*
X254318D01*
X254718Y247631D02*
Y248431D01*
X255518D01*
Y247631D01*
X254718D01*
X257074Y241720D02*
Y243320D01*
X258674D01*
Y241720D01*
X257074D01*
X257474Y242120D02*
Y242920D01*
X258274D01*
Y242120D01*
X257474D01*
X251562Y263767D02*
Y265367D01*
X253162D01*
Y263767D01*
X251562D01*
X251962Y264167D02*
Y264967D01*
X252762D01*
Y264167D01*
X251962D01*
X251562Y252743D02*
Y254343D01*
X253162D01*
Y252743D01*
X251562D01*
X251962Y253143D02*
Y253943D01*
X252762D01*
Y253143D01*
X251962D01*
X251562Y241720D02*
Y243320D01*
X253162D01*
Y241720D01*
X251562D01*
X251962Y242120D02*
Y242920D01*
X252762D01*
Y242120D01*
X251962D01*
X218491Y263767D02*
Y265367D01*
X220091D01*
Y263767D01*
X218491D01*
X218891Y264167D02*
Y264967D01*
X219691D01*
Y264167D01*
X218891D01*
X215735Y258255D02*
Y259855D01*
X217335D01*
Y258255D01*
X215735D01*
X216135Y258655D02*
Y259455D01*
X216935D01*
Y258655D01*
X216135D01*
X218491Y252743D02*
Y254343D01*
X220091D01*
Y252743D01*
X218491D01*
X218891Y253143D02*
Y253943D01*
X219691D01*
Y253143D01*
X218891D01*
X215735Y247231D02*
Y248831D01*
X217335D01*
Y247231D01*
X215735D01*
X216135Y247631D02*
Y248431D01*
X216935D01*
Y247631D01*
X216135D01*
X218491Y241720D02*
Y243320D01*
X220091D01*
Y241720D01*
X218491D01*
X218891Y242120D02*
Y242920D01*
X219691D01*
Y242120D01*
X218891D01*
X215735Y236208D02*
Y237808D01*
X217335D01*
Y236208D01*
X215735D01*
X216135Y236608D02*
Y237408D01*
X216935D01*
Y236608D01*
X216135D01*
D60*
X116678Y208520D02*
X116125Y209280D01*
X115231Y208990D01*
Y208050D01*
X116125Y207759D01*
X116678Y208520D01*
Y178992D02*
X116125Y179753D01*
X115231Y179462D01*
Y178522D01*
X116125Y178231D01*
X116678Y178992D01*
X267678Y101492D02*
X267125Y102253D01*
X266231Y101962D01*
Y101022D01*
X267125Y100731D01*
X267678Y101492D01*
Y131020D02*
X267125Y131781D01*
X266231Y131490D01*
Y130550D01*
X267125Y130259D01*
X267678Y131020D01*
X191678Y101965D02*
X191125Y102725D01*
X190231Y102435D01*
Y101494D01*
X191125Y101204D01*
X191678Y101965D01*
Y131492D02*
X191125Y132253D01*
X190231Y131962D01*
Y131022D01*
X191125Y130731D01*
X191678Y131492D01*
X116678Y101992D02*
X116125Y102753D01*
X115231Y102462D01*
Y101522D01*
X116125Y101231D01*
X116678Y101992D01*
Y131520D02*
X116125Y132281D01*
X115231Y131990D01*
Y131050D01*
X116125Y130759D01*
X116678Y131520D01*
X41678Y101965D02*
X41125Y102725D01*
X40231Y102435D01*
Y101494D01*
X41125Y101204D01*
X41678Y101965D01*
Y131492D02*
X41125Y132253D01*
X40231Y131962D01*
Y131022D01*
X41125Y130731D01*
X41678Y131492D01*
Y208520D02*
X41125Y209280D01*
X40231Y208990D01*
Y208050D01*
X41125Y207759D01*
X41678Y208520D01*
Y178992D02*
X41125Y179753D01*
X40231Y179462D01*
Y178522D01*
X41125Y178231D01*
X41678Y178992D01*
Y55492D02*
X41125Y56253D01*
X40231Y55962D01*
Y55022D01*
X41125Y54731D01*
X41678Y55492D01*
Y25965D02*
X41125Y26725D01*
X40231Y26435D01*
Y25494D01*
X41125Y25204D01*
X41678Y25965D01*
X116678Y55520D02*
X116125Y56280D01*
X115231Y55990D01*
Y55050D01*
X116125Y54759D01*
X116678Y55520D01*
Y25992D02*
X116125Y26753D01*
X115231Y26462D01*
Y25522D01*
X116125Y25231D01*
X116678Y25992D01*
X191678Y55492D02*
X191125Y56253D01*
X190231Y55962D01*
Y55022D01*
X191125Y54731D01*
X191678Y55492D01*
Y25965D02*
X191125Y26725D01*
X190231Y26435D01*
Y25494D01*
X191125Y25204D01*
X191678Y25965D01*
X267678Y55492D02*
X267125Y56253D01*
X266231Y55962D01*
Y55022D01*
X267125Y54731D01*
X267678Y55492D01*
Y25965D02*
X267125Y26725D01*
X266231Y26435D01*
Y25494D01*
X267125Y25204D01*
X267678Y25965D01*
M02*
