M48
;Layer_Color=9474304
;FILE_FORMAT=2:5
INCH,LZ
;TYPE=PLATED
T1F00S00C0.01181
T2F00S00C0.02800
T3F00S00C0.03500
T4F00S00C0.04200
T5F00S00C0.04744
T6F00S00C0.07900
T7F00S00C0.08071
T8F00S00C0.12205
T9F00S00C0.15748
%
T01
X0335039Y0198425
X0332283Y0203937
Y0214961
X0335039Y0220472
X0340551
X0346063
X0351575
X0357086
X0362598
X036811
X0365354Y0225984
X0370866
X036811Y0231496
X0362598
X0357086
X0351575
X0346063
X0340551
X0335039
X0332283Y0225984
X0337795
X0343307
X0348819
X0354331
X0359842
Y0214961
X0365354
X0370866
X036811Y0209449
X0362598
X0357086
X0354331Y0214961
Y0203937
X0359842
X0365354
X0370866
X036811Y0198425
X0362598
X0357086
X0351575
X0348819Y0237008
X0354331
X0359842
X0365354
X0370866
X036811Y024252
X0362598
X0357086
X0354331Y0248031
X0359842
X0365354
X0370866
X036811Y0253543
X0362598
X0357086
X0354331Y0259055
X0359842
X0365354
X0370866
X036811Y0264567
X0362598
X0357086
X0351575
X0346063
X0340551
X0335039
X0329527
X0324016
X0318504
X0312992
X030748
X0301968
X0304724Y0259055
X0310236
X0315748
X032126
X0326771
X0332283
X0337795
X0343307
X0348819
X0335039Y0253543
X0329527
X0324016
X0318504
X0312992
X030748
X0301968
X0304724Y0248031
X0310236
X0315748
X032126
X0326771
X0332283
X0335039Y024252
X0329527
X0324016
X0318504
X0312992
X030748
X0301968
X0304724Y0237008
X0310236
X0315748
X0332283
X0337795
X0343307
X0299213Y0248031
X0293701
X0288189
X0282677
X0277165
X0271653
X0266142
X026063
X0255118
X0257874Y0253543
X0263386
X0268898
X0274409
X0279921
X0285433
X0290945
X0296457
X0293701Y0259055
X0299213
X0296457Y0264567
X0290945
X0285433
X0279921
X0274409
X0268898
X0263386
X0257874
X0252362
X0255118Y0259055
X026063
X0266142
X0271653
X0277165
X0282677
X0288189
X0252362Y0253543
Y024252
X0257874
X0266142Y0237008
X0216535
X0219291Y024252
X0216535Y0248031
X0219291Y0253543
X0216535Y0259055
X0219291Y0264567
T02
X0224961Y0189092
X0221927Y0194488
X0221642Y0203928
X0227964Y0207863
T03
X0324095Y0227244
Y0237244
T04
X0190878Y0025965
Y0055492
X0266878
Y0025965
X0115878Y0025992
Y005552
X0040878Y0055492
Y0025965
Y0101965
Y0131492
Y0178992
Y020852
X0115878
Y0178992
Y013152
Y0101992
X0190878Y0101965
Y0131492
X0266878Y013102
Y0101492
T05
X0044094Y0256693
X0063779
X0083465
T06
X0344094Y0207244
Y0247244
T07
X0106693Y0258268
X0125197
X0143701
T08
X0359449Y0016535
X0019685Y0255906
T09
X0344094Y0073622
X0184252Y0185827
X0344094Y0143701
X0184252Y0243701
M30
